<?xml version="1.0" encoding="UTF-8" standalone="no" ?>
<!DOCTYPE svg PUBLIC "-//W3C//DTD SVG 1.1//EN" "http://www.w3.org/Graphics/SVG/1.1/DTD/svg11.dtd">
<svg xmlns="http://www.w3.org/2000/svg" xmlns:xlink="http://www.w3.org/1999/xlink" version="1.1" width="1280" height="1024" viewBox="0 0 1280 1024" xml:space="preserve">
<desc>Created with Fabric.js 5.3.0</desc>
<defs>
</defs>
<g transform="matrix(1 0 0 1 640 512)" id="background-logo"  >
<rect style="stroke: none; stroke-width: 0; stroke-dasharray: none; stroke-linecap: butt; stroke-dashoffset: 0; stroke-linejoin: miter; stroke-miterlimit: 4; fill: rgb(0,0,0); fill-rule: nonzero; opacity: 1;"  paint-order="stroke"  x="-640" y="-512" rx="0" ry="0" width="1280" height="1024" />
</g>
<g transform="matrix(3.3327105016100105 0 0 3.3327105016100105 624.752862884878 481.5182623505307)" id="shape-90370c26-5f67-4295-86d4-98d08f098d8d"  >
<g style=""  paint-order="stroke"   >
		<g transform="matrix(1 0 0 1 0 0)" id="Layer_1"  >
<linearGradient id="SVGID_224315" gradientUnits="userSpaceOnUse" gradientTransform="matrix(1 0 0 1 0 0)"  x1="0" y1="0" x2="0" y2="174">
<stop offset="0%" style="stop-color:rgb(23,234,217);stop-opacity: 1"/>
<stop offset="100%" style="stop-color:rgb(96,120,234);stop-opacity: 1"/>
</linearGradient>
<path style="stroke: none; stroke-width: 0; stroke-dasharray: none; stroke-linecap: butt; stroke-dashoffset: 0; stroke-linejoin: miter; stroke-miterlimit: 4; fill: url(#SVGID_224315); fill-rule: nonzero; opacity: 1;"  paint-order="stroke"  transform=" translate(-81.6938475, -87.193238)" d="M 90.700806 99.494019 L 90.700806 74.892457 L 113.640381 74.892457 C 141.071411 74.892457 163.387695 97.208863 163.387695 124.639039 C 163.387695 152.070069 141.071411 174.386476 113.640381 174.386476 L 0 174.386476 L 0 112.88269199999999 L 112.533936 112.88269199999999 L 112.533936 135.122926 L 24.60144 135.122926 L 24.60144 149.785035 L 113.64038 149.785035 C 127.505614 149.785035 138.78625399999999 138.50500599999998 138.78625399999999 124.639771 C 138.78625399999999 110.77478099999999 127.50561399999998 99.494019 113.64038 99.494019 L 90.70080499999999 99.494019 Z M 163.387695 62.048096 L 163.387695 0 L 49.746582 0 C 22.316284 0 0 22.316406 0 49.747314 C 0 77.17761200000001 22.316284 99.49401800000001 49.746582 99.49401800000001 L 77.345703 99.49401800000001 L 77.345703 74.89245600000001 L 49.746582000000004 74.89245600000001 C 35.88147000000001 74.89245600000001 24.601440000000004 63.61242700000001 24.601440000000004 49.74731400000001 C 24.601440000000004 35.88146900000001 35.881469 24.60144000000001 49.746582000000004 24.60144000000001 L 138.78625499999998 24.60144000000001 L 138.78625499999998 62.04809500000001 L 163.38769499999998 62.04809500000001 Z" stroke-linecap="round" />
</g>
</g>
</g>
<g transform="matrix(1.9211538461538462 0 0 1.9211538461538462 592.635150173932 801.604910049618)" id="shape-61d9a111-d5fd-4d6e-9105-45b64a43137d"  >
<g style=""  paint-order="stroke"   >
		<g transform="matrix(1 0 0 1 -1.421085e-14 0)" id="Path_01"  >
<linearGradient id="SVGID_224312" gradientUnits="userSpaceOnUse" gradientTransform="matrix(1 0 0 1 -0.00000398770866638642 0)"  x1="0" y1="0" x2="0" y2="31">
<stop offset="0%" style="stop-color:rgb(180,236,81);stop-opacity: 1"/>
<stop offset="100%" style="stop-color:rgb(66,147,33);stop-opacity: 1"/>
</linearGradient>
<path style="stroke: none; stroke-width: 1; stroke-dasharray: none; stroke-linecap: butt; stroke-dashoffset: 0; stroke-linejoin: miter; stroke-miterlimit: 4; fill: url(#SVGID_224312); fill-rule: nonzero; opacity: 1;"  paint-order="stroke"  transform=" translate(-124.99999455088559, -15.35371)" d="M 140.22496 11.33836 L 128.28525 26.5967 L 123.86331999999999 26.5967 L 135.80588999999998 11.338349999999998 L 140.22496 11.338349999999998 z M 147.99498 11.33836 L 136.05534 26.5967 L 131.63333 26.5967 L 143.57591 11.338349999999998 L 147.99498 11.338349999999998 z M 157.2762 11.33836 L 145.33354 26.5967 L 140.91447 26.5967 L 152.85417999999999 11.338349999999998 L 157.2762 11.338349999999998 z M 166.55441 11.33836 L 154.61183 26.5967 L 150.19276 26.5967 L 162.1324 11.338349999999998 L 166.55441 11.338349999999998 z M 175.07855 11.33836 L 163.13892 26.5967 L 158.71691 26.5967 L 170.65949 11.338349999999998 L 175.07855 11.338349999999998 z M 177.90057 0.20247 L 174.50852999999998 4.53641 L 131.80861999999996 4.53641 L 125.34437999999996 12.79353 L 105.35300999999995 12.79353 L 95.34119 0 L 86.28595 0 L 96.29777 12.79353 L 93.91513 12.79353 L 83.90038 0 L 74.84806 0 L 84.85989000000001 12.79353 L 81.192 12.79353 L 71.33571 0.19659 L 0.94485 0.19659 L 0.94485 3.67666 L 1.81635 3.67666 L 8.013580000000001 12.38859 C 8.20724 12.65854 8.518270000000001 12.81994 8.849850000000002 12.81994 C 8.849850000000002 12.81994 8.849850000000002 12.81994 8.852790000000002 12.81994 L 34.524950000000004 12.79059 C 34.85653000000001 12.79059 35.170500000000004 12.62921 35.361230000000006 12.359259999999999 L 41.53792000000001 3.6766699999999997 L 69.63381000000001 3.6766699999999997 L 78.08752000000001 14.47782 L 69.63674000000002 25.27603 L 15.22315 25.27603 C 14.68617 23.67392 13.20729 22.52366 11.47311 22.52366 C 9.28412 22.52366 7.50301 24.35759 7.50301 26.614069999999998 C 7.50301 28.870549999999998 9.28411 30.70742 11.47311 30.70742 C 12.89852 30.70742 14.15085 29.928539999999998 14.84843 28.762829999999997 L 71.33277000000001 28.75904 L 81.10104000000001 16.27655 L 127.04333000000001 16.27655 L 133.50466 8.01943 L 176.20455 8.01943 L 179.53203000000002 3.77057 L 185.22164 11.04175 L 222.1175 11.04175 L 227.87458 3.68548 L 247.05314 3.68548 L 247.05314 0.20247 L 177.90057 0.20247 z M 33.99384 10.73658 L 9.38095 10.76594 L 4.3369 3.67667 L 39.01736 3.67667 L 33.99384 10.73658 z M 11.47311 28.6534 C 10.41677 28.6534 9.55702 27.7379 9.55702 26.614060000000002 C 9.55702 25.490240000000004 10.41677 24.57766 11.47311 24.57766 C 12.52945 24.57766 13.38921 25.49024 13.38921 26.614060000000002 C 13.38921 27.7379 12.52945 28.6534 11.47311 28.6534 z M 66.01289 5.91554 C 64.15256 5.91554 62.58857 7.24185 62.16016 9.02589 L 45.51096 8.88799 C 45.176449999999996 8.88799 44.85955 9.04644 44.665879999999994 9.319320000000001 L 38.442249999999994 18.06646 L 1.02408 18.19556 C 0.45483000000000007 18.1985 -0.0029199999999998116 18.65918 0.000010000000000065512 19.22844 C 0.0029500000000000654 19.79476 0.46070000000000005 20.24957 1.02701 20.24957 L 1.02995 20.24957 L 38.97627 20.120459999999998 C 39.30785 20.117539999999998 39.61888 19.959079999999997 39.80962 19.68913 L 46.030330000000006 10.94493 L 62.18363000000001 11.079899999999999 C 62.63844000000001 12.819949999999999 64.18482 14.0993 66.01288000000001 14.0993 C 68.20188000000002 14.0993 69.983 12.26536 69.983 10.00889 C 69.983 7.752419999999999 68.20188 5.91554 66.01289 5.91554 z M 66.01289 12.04529 C 64.95655 12.04529 64.09681 11.132729999999999 64.09681 10.00889 C 64.09681 8.88505 64.95656000000001 7.969549999999999 66.01289 7.969549999999999 C 67.07217 7.969549999999999 67.929 8.88505 67.929 10.00889 C 67.929 11.132729999999999 67.07217 12.04529 66.01289 12.04529 z M 249.99998 19.15476 C 250.00285 19.724 249.5334 20.1847 248.94947 20.18757 L 172.68705 20.48687 L 174.30091 18.42699 L 248.94066999999998 18.13356 C 248.94360999999998 18.13356 248.94360999999998 18.13356 248.94653999999997 18.13356 C 249.52753 18.13356 249.99998 18.59133 249.99998 19.15476 z" stroke-linecap="round" />
</g>
</g>
</g>
</svg>